<svg width="113" height="25" viewBox="0 0 113 25" fill="none" xmlns="http://www.w3.org/2000/svg">
<path d="M1.30184 21.2514C1.39828 20.6728 1.51279 20.0761 1.64539 19.4614C1.77798 18.8466 1.96482 18.1173 2.2059 17.2735C2.45904 16.4298 2.7845 15.3871 3.18229 14.1455C3.00148 14.1576 2.80258 14.1756 2.58561 14.1997C2.38069 14.2239 2.18782 14.2419 2.00701 14.254C2.00701 13.8683 2.15166 13.5729 2.44096 13.368C2.73026 13.1631 3.10996 13.0124 3.58007 12.916C3.62829 12.7472 3.67048 12.6146 3.70664 12.5182C3.7428 12.4218 3.78499 12.3012 3.83321 12.1566C3.88143 12.0119 3.95375 11.813 4.05018 11.5599C4.14662 11.2947 4.27318 10.921 4.42989 10.4389C4.59865 9.9567 4.81562 9.32386 5.08081 8.54034C5.10492 8.48007 5.14711 8.35953 5.20738 8.17872C5.26765 7.99791 5.29778 7.82915 5.29778 7.67244C5.29778 7.50369 5.21943 7.41931 5.06273 7.41931C4.82165 7.41931 4.57454 7.52779 4.3214 7.74477C4.08032 7.96174 3.85732 8.23899 3.6524 8.5765C3.44748 8.90196 3.28475 9.24551 3.16421 9.60713C3.04366 9.9567 2.98339 10.2701 2.98339 10.5474C2.98339 10.6438 2.99545 10.7523 3.01956 10.8728C3.04366 10.9934 3.09188 11.1561 3.16421 11.361C2.65793 11.361 2.29028 11.2525 2.06125 11.0355C1.84428 10.8065 1.73579 10.5172 1.73579 10.1676C1.73579 9.75781 1.85633 9.34797 2.09742 8.93813C2.35055 8.52829 2.66999 8.15461 3.05572 7.81709C3.4535 7.46752 3.86937 7.19028 4.30332 6.98536C4.74932 6.76839 5.15916 6.6599 5.53284 6.6599C5.91857 6.6599 6.18376 6.76236 6.32841 6.96728C6.47306 7.1722 6.54539 7.40123 6.54539 7.65436C6.54539 7.78696 6.5273 7.91955 6.49114 8.05215C6.46703 8.18474 6.4369 8.31131 6.40074 8.43185L5.08081 12.7713C5.22546 12.7593 5.37011 12.7533 5.51476 12.7533C5.67146 12.7533 5.82817 12.7533 5.98487 12.7533C6.57552 12.7533 7.13001 12.7653 7.64834 12.7894C8.16666 12.8135 8.66691 12.8497 9.14908 12.8979C9.45043 11.8854 9.70356 11.0536 9.90848 10.4027C10.1255 9.75178 10.3123 9.21537 10.469 8.79348C10.6378 8.35953 10.7884 7.97982 10.921 7.65436C10.9692 7.55793 11.0355 7.43136 11.1199 7.27466C11.2164 7.1059 11.349 6.96125 11.5177 6.84071C11.6985 6.70811 11.9336 6.64182 12.2229 6.64182C12.0662 7.06371 11.8733 7.62423 11.6443 8.32337C11.4273 9.01045 11.2043 9.76383 10.9753 10.5835C10.7462 11.3911 10.5293 12.1927 10.3244 12.9883C10.4931 12.9883 10.7282 13.0004 11.0295 13.0245C11.3429 13.0365 11.6322 13.0426 11.8974 13.0426C11.5237 13.4162 11.1922 13.6513 10.9029 13.7477C10.6137 13.8321 10.3485 13.8743 10.1074 13.8743C9.97478 14.4288 9.85424 14.9592 9.74575 15.4654C9.63727 15.9717 9.54686 16.4418 9.47454 16.8758C9.32989 17.6472 9.2214 18.3223 9.14908 18.9009C9.0888 19.4674 9.05867 19.9315 9.05867 20.2931C9.05867 20.486 9.0647 20.6547 9.07675 20.7994C9.10086 20.9561 9.12497 21.1068 9.14908 21.2514C8.53431 21.1911 8.11242 21.0405 7.88339 20.7994C7.66642 20.5703 7.55793 20.1605 7.55793 19.5699C7.55793 19.2926 7.57601 18.9852 7.61218 18.6477C7.66039 18.3102 7.73874 17.9124 7.84723 17.4544C7.94366 17.0084 8.07626 16.4961 8.24502 15.9175C8.41377 15.3389 8.61869 14.6638 8.85978 13.8924C8.12447 13.8924 7.51574 13.8984 7.03358 13.9104C6.55141 13.9225 6.12952 13.9346 5.76789 13.9466C5.40627 13.9587 5.04465 13.9828 4.68302 14.0189C4.67097 14.0672 4.64084 14.1696 4.59262 14.3263C4.5444 14.483 4.46002 14.7603 4.33948 15.1581C4.21894 15.5558 4.03813 16.1405 3.79705 16.9119C3.55596 17.6834 3.2305 18.72 2.82066 20.0219C2.68807 20.4679 2.45904 20.7813 2.13358 20.9621C1.80812 21.155 1.53087 21.2514 1.30184 21.2514ZM17.8838 21.2514C17.5222 21.0585 17.2932 20.8596 17.1968 20.6547C17.1003 20.4498 17.0521 20.275 17.0521 20.1304C17.0521 19.8049 17.1666 19.371 17.3956 18.8285C17.6367 18.274 17.9562 17.6412 18.3539 16.93C18.7517 16.2188 19.2038 15.4775 19.71 14.706C19.3364 14.6819 18.9808 14.6638 18.6432 14.6518C18.3057 14.6397 17.8718 14.6337 17.3414 14.6337H17.0521C17.2209 14.1997 17.486 13.8984 17.8477 13.7296C18.2214 13.5488 18.6553 13.4584 19.1495 13.4584C19.3544 13.4584 19.5654 13.4705 19.7824 13.4946C20.0114 13.5187 20.2464 13.5428 20.4875 13.5669C21.3916 12.2651 22.2715 11.0777 23.1274 10.0049C23.9832 8.92005 24.7185 8.08228 25.3333 7.49163C25.9119 6.91303 26.3338 6.62374 26.599 6.62374C26.7677 6.62374 26.9546 6.69003 27.1595 6.82263C27.3765 6.95522 27.5995 7.12398 27.8285 7.3289C27.7079 7.42533 27.5512 7.67244 27.3584 8.07023C27.1776 8.46802 26.9787 8.97429 26.7617 9.58905C26.5568 10.1918 26.3458 10.8547 26.1289 11.578C25.9239 12.3012 25.7371 13.0365 25.5683 13.7839C25.3996 14.5312 25.261 15.2485 25.1525 15.9355C25.056 16.6106 25.0078 17.2073 25.0078 17.7256C25.0078 18.6779 25.2188 19.154 25.6407 19.154C25.9179 19.154 26.2614 18.943 26.6713 18.5211C27.0811 18.0993 27.5392 17.4122 28.0455 16.4599L28.3709 16.8034C27.9972 17.7919 27.509 18.6055 26.9063 19.2444C26.3157 19.8833 25.6828 20.2027 25.0078 20.2027C24.4292 20.2027 24.0194 19.9556 23.7783 19.4614C23.5372 18.9551 23.4167 18.268 23.4167 17.4001C23.4167 17.1229 23.4348 16.8095 23.4709 16.4599C23.5071 16.1103 23.5674 15.6764 23.6517 15.1581C23.1213 15.0737 22.6512 15.0074 22.2414 14.9592C21.8316 14.9109 21.4398 14.8627 21.0661 14.8145C20.4875 15.8391 19.927 16.8999 19.3846 17.9968C18.8421 19.0937 18.3419 20.1786 17.8838 21.2514ZM23.8325 14.2721C23.9892 13.5609 24.1701 12.8437 24.375 12.1204C24.592 11.3851 24.815 10.686 25.044 10.023C25.2851 9.34797 25.5201 8.74526 25.7491 8.21488C25.1947 8.64883 24.5558 9.36605 23.8325 10.3665C23.1213 11.355 22.3921 12.4941 21.6447 13.7839C22.0063 13.8562 22.368 13.9346 22.7296 14.0189C23.0912 14.1033 23.4589 14.1877 23.8325 14.2721ZM42.6525 21.8662C42.3632 21.8662 42.0317 21.7095 41.658 21.3961C41.2844 21.0826 40.8926 20.6728 40.4828 20.1665C40.085 19.6603 39.6872 19.1058 39.2894 18.5031C38.9037 17.8883 38.536 17.2735 38.1865 16.6588C37.8369 16.044 37.5416 15.4895 37.3005 14.9953C36.975 16.1043 36.6616 17.2012 36.3603 18.2861C36.071 19.3589 35.7937 20.3534 35.5285 21.2695C35.1789 21.2695 34.8475 21.1731 34.5341 20.9802C34.2327 20.7873 34.082 20.5342 34.082 20.2208C34.082 20.0882 34.1122 19.9315 34.1724 19.7507C34.2327 19.5699 34.2869 19.3951 34.3352 19.2263C34.6847 18.1776 34.9981 17.2434 35.2754 16.4237C35.5526 15.592 35.8118 14.8326 36.0529 14.1455C36.306 13.4464 36.5591 12.7593 36.8123 12.0843C37.0775 11.3972 37.3668 10.6799 37.6802 9.93259C37.9936 9.18524 38.3552 8.34145 38.765 7.40123C38.2949 7.49766 37.8791 7.62423 37.5174 7.78093C37.1679 7.93763 36.8786 8.07626 36.6496 8.1968C36.4326 8.31734 36.2819 8.37761 36.1975 8.37761C36.1373 8.37761 36.0468 8.34145 35.9263 8.26912C35.8058 8.18474 35.6973 8.08831 35.6008 7.97982C35.5165 7.85928 35.4743 7.75682 35.4743 7.67244C35.8118 7.53985 36.2035 7.3952 36.6496 7.2385C37.1076 7.08179 37.6079 6.9492 38.1503 6.84071C38.6927 6.72017 39.2532 6.6599 39.8318 6.6599C40.3743 6.6599 40.9348 6.7262 41.5134 6.85879C42.092 6.97933 42.6284 7.17822 43.1226 7.45547C43.6168 7.73271 44.0146 8.09434 44.316 8.54034C44.6173 8.98634 44.768 9.52275 44.768 10.1496C44.768 10.8366 44.5872 11.4152 44.2256 11.8854C43.876 12.3434 43.4179 12.7171 42.8514 13.0064C42.2969 13.2957 41.7002 13.5187 41.0614 13.6754C40.4345 13.8321 39.8379 13.9406 39.2713 14.0009C38.7168 14.0491 38.2648 14.0792 37.9152 14.0913C38.4336 14.8989 38.9398 15.6884 39.4341 16.4599C39.9403 17.2314 40.531 17.9968 41.206 18.7562C41.881 19.5156 42.7309 20.2871 43.7555 21.0706C43.7072 21.3117 43.5566 21.5045 43.3034 21.6492C43.0623 21.7938 42.8454 21.8662 42.6525 21.8662ZM37.7163 13.5488C38.3914 13.5006 39.0543 13.3921 39.7053 13.2234C40.3682 13.0546 40.9649 12.8196 41.4953 12.5182C42.0377 12.2168 42.4657 11.8432 42.7791 11.3972C43.1045 10.9391 43.2673 10.4027 43.2673 9.78794C43.2673 9.16113 43.1106 8.67294 42.7972 8.32337C42.4837 7.96174 42.0799 7.70258 41.5857 7.54588C41.0915 7.38917 40.5732 7.30479 40.0307 7.29274C39.6209 8.10037 39.2231 9.05264 38.8374 10.1496C38.4516 11.2344 38.078 12.3675 37.7163 13.5488ZM49.4006 21.2695C49.4488 20.7512 49.6176 20.3715 49.9069 20.1304C50.1962 19.9013 50.5698 19.7507 51.0279 19.6783C51.486 19.606 51.9802 19.5699 52.5106 19.5699C52.7637 19.0154 53.0108 18.3403 53.2519 17.5448C53.493 16.7371 53.722 15.8753 53.939 14.9592C54.1559 14.043 54.3609 13.139 54.5537 12.247C54.7586 11.3429 54.9455 10.5172 55.1142 9.76986C55.2951 9.01045 55.4638 8.40172 55.6205 7.94366C54.7044 7.95572 53.9269 7.99791 53.288 8.07023C52.6612 8.14255 52.0103 8.24501 51.3353 8.37761C51.4679 7.7749 51.8476 7.34096 52.4744 7.07577C53.1012 6.81057 54.0595 6.67798 55.3493 6.67798C55.9882 6.67798 56.6511 6.70209 57.3382 6.7503C58.0253 6.79852 58.6582 6.85276 59.2368 6.91303C59.8154 6.97331 60.2674 7.02755 60.5928 7.07577C60.183 7.4615 59.7973 7.70258 59.4356 7.79901C59.074 7.88339 58.7606 7.92558 58.4954 7.92558C58.0976 7.92558 57.742 7.92558 57.4286 7.92558C57.1273 7.92558 56.832 7.93161 56.5427 7.94366C56.4583 8.3535 56.3618 8.85375 56.2534 9.4444C56.1569 10.0351 56.0424 10.6679 55.9098 11.3429C55.7893 12.018 55.6687 12.693 55.5482 13.368C55.4277 14.043 55.3071 14.6759 55.1866 15.2665C55.066 15.8451 54.9575 16.3273 54.8611 16.713C54.7044 17.3398 54.5176 17.9124 54.3006 18.4307C54.0836 18.9491 53.8365 19.3408 53.5593 19.606C54.1981 19.6542 54.843 19.7145 55.494 19.7868C56.1449 19.8592 56.8621 19.9074 57.6456 19.9315C57.1634 20.3775 56.7054 20.6547 56.2714 20.7632C55.8375 20.8838 55.4819 20.944 55.2047 20.944C54.397 20.944 53.722 20.944 53.1796 20.944C52.6492 20.9561 52.1851 20.9681 51.7873 20.9802C51.3895 21.0043 51.0038 21.0405 50.6301 21.0887C50.2685 21.1369 49.8587 21.1972 49.4006 21.2695ZM67.9187 21.2514C67.2195 21.2514 66.5505 21.1309 65.9117 20.8898C65.2849 20.6487 64.7726 20.2811 64.3748 19.7868C63.977 19.2926 63.7781 18.6779 63.7781 17.9426C63.7781 17.2916 63.9227 16.7854 64.212 16.4237C64.5013 16.0501 64.863 15.7909 65.2969 15.6462C65.7309 15.5016 66.1528 15.4293 66.5626 15.4293C66.1769 15.8391 65.8815 16.261 65.6766 16.695C65.4838 17.1289 65.3873 17.5448 65.3873 17.9426C65.3873 18.3524 65.4898 18.7381 65.6947 19.0997C65.9117 19.4493 66.2311 19.7326 66.653 19.9496C67.0749 20.1786 67.5993 20.2931 68.2261 20.2931C68.7685 20.2931 69.2929 20.2027 69.7991 20.0219C70.3175 19.8411 70.7393 19.5699 71.0648 19.2082C71.4023 18.8466 71.5711 18.3946 71.5711 17.8521C71.5711 17.3579 71.4264 16.936 71.1371 16.5865C70.8599 16.2248 70.4983 15.9054 70.0523 15.6282C69.6063 15.3389 69.1362 15.0676 68.6419 14.8145C68.1477 14.5493 67.6776 14.266 67.2316 13.9647C66.7856 13.6633 66.4179 13.3138 66.1286 12.916C65.8514 12.5182 65.7128 12.0421 65.7128 11.4876C65.7128 10.9934 65.8333 10.469 66.0744 9.91451C66.3275 9.34797 66.6831 8.81759 67.1412 8.32337C67.5993 7.82915 68.1537 7.43136 68.8047 7.13001C69.4556 6.8166 70.1788 6.6599 70.9744 6.6599C71.8061 6.6599 72.3908 6.83468 72.7283 7.18425C73.0658 7.53382 73.2346 7.99188 73.2346 8.55842C73.2346 9.00442 73.1562 9.48056 72.9995 9.98683C72.8428 10.4931 72.6499 10.9753 72.4209 11.4333C72.2039 11.8914 71.993 12.2831 71.7881 12.6086C71.2577 12.5001 70.9925 12.1927 70.9925 11.6865C70.9925 11.4333 71.0407 11.1501 71.1371 10.8366C71.2456 10.5232 71.3662 10.1978 71.4988 9.86027C71.6434 9.52275 71.7639 9.19729 71.8604 8.88388C71.9689 8.55842 72.0231 8.27515 72.0231 8.03407C72.0231 7.81709 71.9568 7.64834 71.8242 7.52779C71.7037 7.40725 71.4505 7.34698 71.0648 7.34698C70.4862 7.34698 69.9558 7.47355 69.4737 7.72669C68.9915 7.97982 68.5696 8.29926 68.208 8.68499C67.8584 9.07072 67.5872 9.48056 67.3943 9.91451C67.2015 10.3364 67.105 10.7221 67.105 11.0717C67.105 11.5057 67.2437 11.8793 67.5209 12.1927C67.7981 12.4941 68.1537 12.7713 68.5877 13.0245C69.0337 13.2776 69.4978 13.5307 69.9799 13.7839C70.4742 14.037 70.9382 14.3203 71.3722 14.6337C71.8182 14.9471 72.1798 15.3208 72.4571 15.7547C72.7343 16.1887 72.8729 16.7191 72.8729 17.3459C72.8729 17.9727 72.7283 18.5272 72.439 19.0093C72.1617 19.4915 71.782 19.8953 71.2999 20.2208C70.8177 20.5583 70.2813 20.8114 69.6906 20.9802C69.112 21.161 68.5214 21.2514 67.9187 21.2514ZM79.9055 21.2514C80.0019 20.6728 80.1165 20.0761 80.2491 19.4614C80.3817 18.8466 80.5685 18.1173 80.8096 17.2735C81.0627 16.4298 81.3882 15.3871 81.786 14.1455C81.6051 14.1576 81.4063 14.1756 81.1893 14.1997C80.9844 14.2239 80.7915 14.2419 80.6107 14.254C80.6107 13.8683 80.7553 13.5729 81.0446 13.368C81.3339 13.1631 81.7136 13.0124 82.1837 12.916C82.232 12.7472 82.2741 12.6146 82.3103 12.5182C82.3465 12.4218 82.3887 12.3012 82.4369 12.1566C82.4851 12.0119 82.5574 11.813 82.6539 11.5599C82.7503 11.2947 82.8769 10.921 83.0336 10.4389C83.2023 9.9567 83.4193 9.32386 83.6845 8.54034C83.7086 8.48007 83.7508 8.35953 83.811 8.17872C83.8713 7.99791 83.9015 7.82915 83.9015 7.67244C83.9015 7.50369 83.8231 7.41931 83.6664 7.41931C83.4253 7.41931 83.1782 7.52779 82.9251 7.74477C82.684 7.96174 82.461 8.23899 82.2561 8.5765C82.0511 8.90196 81.8884 9.24551 81.7679 9.60713C81.6473 9.9567 81.5871 10.2701 81.5871 10.5474C81.5871 10.6438 81.5991 10.7523 81.6232 10.8728C81.6473 10.9934 81.6955 11.1561 81.7679 11.361C81.2616 11.361 80.894 11.2525 80.6649 11.0355C80.4479 10.8065 80.3395 10.5172 80.3395 10.1676C80.3395 9.75781 80.46 9.34797 80.7011 8.93813C80.9542 8.52829 81.2737 8.15461 81.6594 7.81709C82.0572 7.46752 82.473 7.19028 82.907 6.98536C83.353 6.76839 83.7628 6.6599 84.1365 6.6599C84.5222 6.6599 84.7874 6.76236 84.9321 6.96728C85.0767 7.1722 85.1491 7.40123 85.1491 7.65436C85.1491 7.78696 85.131 7.91955 85.0948 8.05215C85.0707 8.18474 85.0406 8.31131 85.0044 8.43185L83.6845 12.7713C83.8291 12.7593 83.9738 12.7533 84.1184 12.7533C84.2751 12.7533 84.4318 12.7533 84.5885 12.7533C85.1792 12.7533 85.7337 12.7653 86.252 12.7894C86.7703 12.8135 87.2706 12.8497 87.7527 12.8979C88.0541 11.8854 88.3072 11.0536 88.5122 10.4027C88.7291 9.75178 88.916 9.21537 89.0727 8.79348C89.2414 8.35953 89.3921 7.97982 89.5247 7.65436C89.5729 7.55793 89.6392 7.43136 89.7236 7.27466C89.82 7.1059 89.9526 6.96125 90.1214 6.84071C90.3022 6.70811 90.5372 6.64182 90.8265 6.64182C90.6698 7.06371 90.477 7.62423 90.2479 8.32337C90.031 9.01045 89.808 9.76383 89.5789 10.5835C89.3499 11.3911 89.1329 12.1927 88.928 12.9883C89.0968 12.9883 89.3318 13.0004 89.6332 13.0245C89.9466 13.0365 90.2359 13.0426 90.5011 13.0426C90.1274 13.4162 89.7959 13.6513 89.5066 13.7477C89.2173 13.8321 88.9521 13.8743 88.711 13.8743C88.5785 14.4288 88.4579 14.9592 88.3494 15.4654C88.2409 15.9717 88.1505 16.4418 88.0782 16.8758C87.9336 17.6472 87.8251 18.3223 87.7527 18.9009C87.6925 19.4674 87.6623 19.9315 87.6623 20.2931C87.6623 20.486 87.6684 20.6547 87.6804 20.7994C87.7045 20.9561 87.7286 21.1068 87.7527 21.2514C87.138 21.1911 86.7161 21.0405 86.4871 20.7994C86.2701 20.5703 86.1616 20.1605 86.1616 19.5699C86.1616 19.2926 86.1797 18.9852 86.2158 18.6477C86.2641 18.3102 86.3424 17.9124 86.4509 17.4544C86.5473 17.0084 86.6799 16.4961 86.8487 15.9175C87.0174 15.3389 87.2224 14.6638 87.4634 13.8924C86.7281 13.8924 86.1194 13.8984 85.6372 13.9104C85.1551 13.9225 84.7332 13.9346 84.3716 13.9466C84.0099 13.9587 83.6483 13.9828 83.2867 14.0189C83.2746 14.0672 83.2445 14.1696 83.1963 14.3263C83.1481 14.483 83.0637 14.7603 82.9432 15.1581C82.8226 15.5558 82.6418 16.1405 82.4007 16.9119C82.1596 17.6834 81.8342 18.72 81.4243 20.0219C81.2917 20.4679 81.0627 20.7813 80.7372 20.9621C80.4118 21.155 80.1345 21.2514 79.9055 21.2514Z" fill="black"/>
<path fill-rule="evenodd" clip-rule="evenodd" d="M94.6497 22.5727C94.556 22.5084 94.5085 22.3954 94.5279 22.2835L95.3835 17.3711C95.3946 17.3071 95.4269 17.2487 95.4752 17.2052L98.4428 14.5324C98.5417 14.4432 98.6887 14.4329 98.7992 14.5073L99.4702 14.9591C99.4736 14.9544 99.4771 14.9496 99.4806 14.9447C99.4915 14.9295 99.503 14.9135 99.515 14.8967C99.578 14.8086 99.6557 14.6999 99.746 14.5915C99.8384 14.4806 99.9479 14.3648 100.08 14.2584C99.9973 14.2108 99.9212 14.1559 99.8517 14.0933C99.6087 13.8746 99.4721 13.5855 99.4158 13.2624C99.3061 12.634 99.492 11.8352 99.8288 10.9887C100.509 9.27961 101.884 7.18266 103.28 5.4189C103.98 4.53468 104.69 3.72774 105.328 3.08881C105.96 2.45709 106.543 1.96731 106.986 1.74254C107.1 1.68508 107.214 1.63953 107.326 1.61569C107.436 1.59211 107.562 1.5858 107.686 1.62912C107.741 1.64867 107.789 1.67501 107.83 1.70653L108.499 1.36663C108.642 1.29402 108.817 1.35104 108.89 1.494C108.962 1.63695 108.905 1.8117 108.762 1.88431L108.056 2.24314C108.056 2.24721 108.056 2.25128 108.056 2.25533C108.057 2.36022 108.046 2.47826 108.023 2.60915L109.493 2.01074C109.641 1.95027 109.811 2.02164 109.871 2.17014C109.931 2.31864 109.86 2.48804 109.712 2.5485L107.832 3.3138C107.751 3.55092 107.648 3.81914 107.52 4.12021L109.907 3.32244C110.059 3.27163 110.223 3.35371 110.274 3.50578C110.325 3.65785 110.243 3.82232 110.091 3.87314L107.196 4.84061C107.062 5.12635 106.926 5.40772 106.789 5.68453L109.82 4.66548C109.972 4.61438 110.136 4.69615 110.187 4.84812C110.238 5.00009 110.157 5.16472 110.005 5.21583L106.415 6.42301C106.279 6.6849 106.142 6.94227 106.005 7.19497L109.422 6.03345C109.574 5.98185 109.739 6.06309 109.79 6.21489C109.842 6.3667 109.761 6.53159 109.609 6.58319L105.583 7.95141C105.448 8.18881 105.313 8.42158 105.177 8.64954L108.505 7.5183C108.657 7.4667 108.822 7.54793 108.874 7.69974C108.925 7.85155 108.844 8.01644 108.692 8.06804L104.707 9.42246C104.532 9.70428 104.358 9.97765 104.185 10.2422L107.409 9.14636C107.561 9.09476 107.726 9.176 107.777 9.3278C107.829 9.47961 107.748 9.64451 107.596 9.6961L103.654 11.036C103.44 11.3471 103.231 11.6435 103.027 11.9245L106.176 10.8542C106.328 10.8026 106.492 10.8838 106.544 11.0356C106.596 11.1874 106.514 11.3523 106.363 11.4039L102.412 12.7467C102.182 13.0453 101.962 13.3206 101.755 13.5713L104.774 12.5449C104.926 12.4934 105.091 12.5746 105.143 12.7264C105.194 12.8782 105.113 13.0431 104.961 13.0947L100.927 14.4657C100.921 14.4677 100.915 14.4695 100.909 14.4712C100.59 14.557 100.37 14.7501 100.192 14.9631C100.117 15.0535 100.053 15.1423 99.9904 15.2302C99.9776 15.248 99.9649 15.2658 99.9521 15.2836L100.567 15.6976C100.675 15.7706 100.722 15.907 100.68 16.0309L99.3996 19.8398C99.3776 19.9052 99.3329 19.9607 99.2737 19.9962L94.9633 22.5822C94.8659 22.6407 94.7434 22.6369 94.6497 22.5727ZM99.1179 15.4219L97.116 18.3949C97.0264 18.5279 97.0616 18.7083 97.1946 18.7978C97.3276 18.8874 97.508 18.8522 97.5976 18.7192L99.5995 15.7462L100.059 16.0556L98.8833 19.5534L95.2089 21.7578L95.9383 17.5695L98.6629 15.1155L99.1179 15.4219ZM100.723 13.8806C102.162 12.2776 104.666 8.90744 106.722 4.48244C106.996 3.89369 107.187 3.41962 107.309 3.04719C107.433 2.66918 107.477 2.41664 107.475 2.26308C107.475 2.22372 107.472 2.1971 107.468 2.17969C107.462 2.18054 107.455 2.18176 107.447 2.18351C107.401 2.19344 107.335 2.21677 107.249 2.26048C106.894 2.4404 106.366 2.87204 105.739 3.49925C105.119 4.11925 104.424 4.90876 103.735 5.77926C102.353 7.52494 101.018 9.57055 100.368 11.2033C100.04 12.0277 99.907 12.6997 99.9878 13.1626C100.027 13.3852 100.113 13.5469 100.24 13.6618C100.347 13.7583 100.502 13.8375 100.723 13.8806ZM107.461 2.15419C107.461 2.15511 107.461 2.15604 107.462 2.15696C107.459 2.15352 107.458 2.15105 107.458 2.15062C107.459 2.15027 107.46 2.15126 107.461 2.15419Z" fill="black"/>
<path d="M102.774 11.0149C102.717 10.9654 102.659 10.9127 102.601 10.8567C102.543 10.8008 102.475 10.7313 102.399 10.648C102.324 10.5635 102.232 10.4577 102.123 10.3305C102.112 10.3511 102.101 10.3741 102.089 10.3994C102.078 10.4235 102.067 10.4458 102.056 10.4664C102.014 10.4404 101.991 10.4047 101.988 10.3592C101.985 10.3138 101.994 10.2621 102.015 10.2042C102 10.1875 101.989 10.174 101.98 10.1635C101.972 10.1531 101.962 10.1404 101.949 10.1253C101.937 10.1103 101.92 10.089 101.899 10.0614C101.876 10.033 101.844 9.99398 101.802 9.94436C101.76 9.89342 101.706 9.82706 101.638 9.74527C101.633 9.73857 101.623 9.72583 101.607 9.70706C101.591 9.68829 101.575 9.67362 101.558 9.66307C101.539 9.6517 101.525 9.65458 101.514 9.67172C101.498 9.69808 101.493 9.73242 101.5 9.77472C101.507 9.8157 101.523 9.85877 101.546 9.90392C101.568 9.94826 101.594 9.9892 101.626 10.0267C101.656 10.0635 101.686 10.0912 101.716 10.1099C101.727 10.1164 101.739 10.1224 101.754 10.1278C101.769 10.1333 101.79 10.139 101.817 10.1449C101.783 10.2003 101.747 10.2332 101.707 10.2436C101.668 10.2519 101.629 10.2443 101.591 10.2207C101.546 10.1931 101.509 10.1523 101.481 10.0983C101.453 10.043 101.433 9.98293 101.422 9.91801C101.411 9.85096 101.409 9.7868 101.416 9.72553C101.422 9.66214 101.438 9.61001 101.463 9.56914C101.489 9.52696 101.518 9.50486 101.55 9.50284C101.582 9.50083 101.612 9.50835 101.64 9.52541C101.654 9.53434 101.668 9.54525 101.68 9.55814C101.693 9.56971 101.704 9.58153 101.715 9.59361L102.101 10.0303C102.109 10.0137 102.118 9.99746 102.128 9.98164C102.139 9.9645 102.149 9.94737 102.16 9.93023C102.199 9.86563 102.238 9.8058 102.276 9.75074C102.313 9.69568 102.351 9.64341 102.389 9.59392C102.298 9.49275 102.224 9.40903 102.167 9.34277C102.11 9.27518 102.064 9.21861 102.029 9.17305C101.993 9.12536 101.961 9.0833 101.935 9.04687C101.927 9.0351 101.918 9.01932 101.906 8.99954C101.894 8.97762 101.888 8.95337 101.886 8.9268C101.883 8.89809 101.892 8.86792 101.912 8.83628C101.947 8.88184 101.995 8.9407 102.056 9.01284C102.117 9.08286 102.184 9.15801 102.259 9.23828C102.331 9.31774 102.405 9.39547 102.478 9.47148C102.489 9.45303 102.506 9.42813 102.529 9.3968C102.552 9.36334 102.572 9.3321 102.59 9.3031C102.605 9.36914 102.609 9.42123 102.6 9.45937C102.589 9.49669 102.576 9.52854 102.56 9.5549C102.612 9.60676 102.662 9.65568 102.71 9.70165C102.758 9.74762 102.803 9.78918 102.846 9.82633C102.92 9.89412 102.987 9.95146 103.045 9.99836C103.103 10.0431 103.152 10.0777 103.191 10.102C103.212 10.115 103.231 10.1257 103.248 10.1342C103.267 10.1421 103.285 10.1496 103.302 10.1567C103.254 10.2199 103.209 10.2559 103.168 10.2647C103.128 10.273 103.076 10.2572 103.011 10.2174C102.981 10.1988 102.948 10.1761 102.914 10.1494C102.88 10.1214 102.842 10.086 102.799 10.0433C102.757 10.0027 102.71 9.95367 102.658 9.89623C102.606 9.83879 102.546 9.7709 102.478 9.69256C102.428 9.77298 102.388 9.83996 102.357 9.8935C102.326 9.94704 102.299 9.994 102.276 10.0344C102.253 10.0747 102.231 10.1159 102.21 10.1579C102.215 10.1624 102.224 10.1726 102.238 10.1885C102.252 10.2043 102.276 10.2322 102.312 10.2722C102.347 10.3122 102.399 10.3713 102.467 10.4497C102.535 10.528 102.627 10.6334 102.741 10.766C102.781 10.8105 102.8 10.8567 102.798 10.9045C102.797 10.9531 102.789 10.9899 102.774 11.0149Z" fill="black"/>
<path d="M103.455 9.73104C103.429 9.77455 103.391 9.80319 103.342 9.81696C103.293 9.83205 103.239 9.82173 103.181 9.78599C103.135 9.75757 103.092 9.71616 103.051 9.66178C103.01 9.60739 102.974 9.54549 102.944 9.4761C102.914 9.4067 102.893 9.33528 102.88 9.26183C102.865 9.18758 102.862 9.1153 102.869 9.04501C102.876 8.97472 102.896 8.91255 102.929 8.8585C102.964 8.80181 103.008 8.76263 103.061 8.74095C103.115 8.71927 103.165 8.72304 103.213 8.75228C103.248 8.77421 103.266 8.80256 103.267 8.83736C103.267 8.87215 103.253 8.90465 103.226 8.93487C103.215 8.92492 103.205 8.91564 103.194 8.90701C103.183 8.89706 103.172 8.88803 103.159 8.87991C103.132 8.86367 103.105 8.85432 103.078 8.85187C103.05 8.84943 103.026 8.86534 103.005 8.89962C102.982 8.93653 102.971 8.98181 102.973 9.03547C102.974 9.08913 102.984 9.14635 103.003 9.20712C103.022 9.26576 103.047 9.32394 103.079 9.38167C103.109 9.43859 103.142 9.48918 103.179 9.53342C103.215 9.57766 103.252 9.61115 103.289 9.63389C103.331 9.65988 103.361 9.65771 103.38 9.62739C103.399 9.59707 103.405 9.55452 103.399 9.49974C103.391 9.44415 103.376 9.3841 103.354 9.31957C103.333 9.25373 103.31 9.18946 103.285 9.12676C103.258 9.06325 103.236 9.00882 103.219 8.96347C103.215 8.95546 103.215 8.94815 103.219 8.94156C103.223 8.9371 103.233 8.92924 103.247 8.91799C103.261 8.90461 103.276 8.89417 103.294 8.88667C103.311 8.87917 103.327 8.87989 103.341 8.88882C103.358 8.89938 103.376 8.92322 103.395 8.96036C103.413 8.99668 103.433 9.03529 103.455 9.07618C103.478 9.11575 103.504 9.14447 103.533 9.16233C103.55 9.17289 103.569 9.17843 103.591 9.17894C103.611 9.17865 103.628 9.16796 103.641 9.14686C103.66 9.11522 103.664 9.05685 103.653 8.97174C103.641 8.8845 103.598 8.7767 103.522 8.64835L103.583 8.63393C103.661 8.7493 103.711 8.86394 103.734 8.97786C103.756 9.09179 103.745 9.18566 103.699 9.25948C103.666 9.31353 103.624 9.34318 103.574 9.34843C103.523 9.35369 103.477 9.34545 103.436 9.32372L103.426 9.31763C103.457 9.40934 103.477 9.48898 103.486 9.55654C103.497 9.62278 103.486 9.68095 103.455 9.73104Z" fill="black"/>
<path d="M104.112 8.57174C104.082 8.62051 104.045 8.65194 104 8.66602C103.956 8.68091 103.912 8.67496 103.869 8.64816C103.832 8.62542 103.798 8.59183 103.767 8.54738C103.736 8.50294 103.706 8.4589 103.677 8.41527C103.648 8.37032 103.618 8.3381 103.586 8.31861C103.556 8.29993 103.525 8.29439 103.493 8.30198C103.46 8.30876 103.428 8.32127 103.399 8.33952C103.453 8.41319 103.504 8.48959 103.549 8.56873C103.595 8.64574 103.63 8.70723 103.654 8.75319L103.578 8.74753C103.555 8.70796 103.522 8.65352 103.477 8.58422C103.433 8.51492 103.38 8.44247 103.319 8.36687C103.298 8.37193 103.276 8.36756 103.254 8.35375C103.219 8.33264 103.193 8.30219 103.176 8.26242C103.159 8.22265 103.156 8.19288 103.168 8.1731C103.178 8.15729 103.194 8.15176 103.217 8.15654C103.239 8.15919 103.253 8.16254 103.26 8.16661C103.266 8.17067 103.276 8.18127 103.289 8.19842C103.303 8.21425 103.313 8.22592 103.32 8.23343C103.335 8.24104 103.356 8.23877 103.384 8.22661C103.411 8.21232 103.442 8.19702 103.477 8.18071C103.513 8.16439 103.551 8.15422 103.592 8.15018C103.632 8.14614 103.674 8.15711 103.716 8.1831C103.754 8.20665 103.788 8.23918 103.817 8.28068C103.846 8.32218 103.872 8.36206 103.896 8.40031C103.92 8.43856 103.944 8.4654 103.969 8.48083C103.988 8.4922 104.003 8.4953 104.015 8.49014C104.027 8.48284 104.037 8.4726 104.045 8.45942C104.065 8.42778 104.076 8.38914 104.078 8.34349C104.08 8.29703 104.075 8.24799 104.065 8.19635C104.055 8.14472 104.041 8.09622 104.024 8.05087C104.005 8.00471 103.986 7.96651 103.966 7.93628L104.031 7.91074C104.072 7.97071 104.106 8.04148 104.132 8.12305C104.157 8.2038 104.169 8.28414 104.169 8.36408C104.168 8.44319 104.149 8.51242 104.112 8.57174Z" fill="black"/>
<path d="M103.687 7.28315C103.671 7.3082 103.651 7.32761 103.626 7.3414C103.601 7.35305 103.575 7.35076 103.549 7.33451C103.517 7.31502 103.501 7.28124 103.499 7.23316C103.498 7.18508 103.509 7.14258 103.531 7.10567C103.546 7.08194 103.564 7.06541 103.584 7.05609C103.605 7.04545 103.629 7.04866 103.657 7.06571C103.685 7.08276 103.702 7.11457 103.71 7.16114C103.716 7.20689 103.709 7.24756 103.687 7.28315ZM104.435 8.06588C104.399 8.12388 104.355 8.15683 104.303 8.16472C104.251 8.1726 104.2 8.16152 104.152 8.13148C104.121 8.1128 104.086 8.08397 104.047 8.045C104.007 8.00603 103.968 7.96189 103.929 7.91257C103.89 7.86113 103.856 7.80907 103.826 7.75642C103.797 7.70376 103.777 7.6544 103.767 7.60834C103.756 7.56147 103.76 7.52354 103.777 7.49454C103.787 7.47872 103.801 7.46812 103.819 7.46276C103.835 7.45658 103.853 7.45917 103.871 7.47054C103.888 7.4811 103.908 7.50748 103.929 7.54969C103.951 7.59058 103.976 7.63867 104.004 7.69396C104.032 7.74794 104.064 7.8005 104.1 7.85164C104.136 7.90065 104.175 7.93856 104.218 7.96536C104.261 7.99134 104.293 8.00155 104.317 7.99599C104.34 7.98829 104.36 7.96994 104.378 7.94094C104.406 7.89611 104.413 7.83353 104.401 7.75319C104.389 7.67285 104.344 7.56982 104.267 7.4441L104.317 7.43393C104.404 7.55154 104.458 7.66583 104.479 7.77681C104.5 7.88779 104.485 7.98415 104.435 8.06588Z" fill="black"/>
<path d="M104.819 7.53553C104.778 7.60144 104.731 7.64631 104.679 7.67012C104.628 7.69342 104.577 7.70106 104.525 7.69302C104.473 7.68417 104.424 7.66635 104.381 7.63955C104.343 7.616 104.316 7.59245 104.302 7.56891C104.287 7.54537 104.28 7.52285 104.281 7.50134C104.28 7.47903 104.281 7.45965 104.284 7.44322C104.287 7.42547 104.288 7.41127 104.285 7.40062C104.271 7.34655 104.253 7.28857 104.229 7.22668C104.205 7.16266 104.173 7.10108 104.133 7.04192L104.113 7.02974C104.06 6.99726 104.028 6.96595 104.018 6.93582C104.007 6.90355 104.009 6.87556 104.023 6.85183C104.033 6.83601 104.044 6.82724 104.056 6.82552C104.069 6.82249 104.081 6.82356 104.092 6.82874C104.1 6.83361 104.108 6.84127 104.116 6.85172C104.125 6.86086 104.139 6.87111 104.157 6.88248C104.197 6.90684 104.248 6.92563 104.311 6.93885C104.373 6.94993 104.438 6.96371 104.506 6.98017C104.575 6.99532 104.639 7.02116 104.698 7.05771C104.714 7.06745 104.728 7.07705 104.741 7.08649C104.753 7.09593 104.764 7.10562 104.775 7.11556C104.789 7.0682 104.792 7.01419 104.782 6.95352C104.771 6.89205 104.742 6.8224 104.695 6.74458L104.727 6.73181C104.787 6.80315 104.825 6.87676 104.842 6.95264C104.858 7.02771 104.851 7.10013 104.823 7.16991C104.864 7.22429 104.883 7.284 104.879 7.34902C104.876 7.41272 104.856 7.47489 104.819 7.53553ZM104.674 7.26934C104.667 7.26102 104.657 7.25321 104.645 7.2459C104.633 7.23646 104.623 7.22971 104.617 7.22565C104.557 7.19042 104.493 7.16219 104.426 7.14096C104.359 7.11973 104.291 7.09768 104.221 7.07483C104.248 7.12373 104.275 7.17862 104.303 7.2395C104.331 7.30037 104.351 7.35358 104.363 7.39914C104.411 7.39997 104.464 7.3897 104.521 7.36832C104.578 7.34695 104.629 7.31395 104.674 7.26934ZM104.723 7.49577C104.739 7.46941 104.748 7.44096 104.749 7.41042C104.749 7.37989 104.741 7.35032 104.724 7.32171C104.679 7.36845 104.628 7.40423 104.571 7.42906C104.514 7.45388 104.462 7.46841 104.416 7.47265C104.408 7.49354 104.42 7.51373 104.452 7.53322C104.495 7.56002 104.544 7.57268 104.598 7.57118C104.651 7.56968 104.693 7.54455 104.723 7.49577Z" fill="black"/>
<path d="M105.134 6.96683C105.116 6.99584 105.08 7.00312 105.027 6.98869C104.975 6.97295 104.92 6.9468 104.86 6.91026C104.8 6.8729 104.733 6.81794 104.659 6.74538C104.586 6.6715 104.513 6.58818 104.439 6.49544C104.366 6.40137 104.297 6.30523 104.232 6.20701C104.168 6.10747 104.113 6.01255 104.067 5.92225C104.02 5.82982 103.987 5.74937 103.967 5.68089C103.948 5.61109 103.949 5.56037 103.968 5.52873C103.985 5.50105 104.013 5.4893 104.053 5.49348C104.092 5.49765 104.128 5.50989 104.161 5.5302C104.197 5.55212 104.235 5.5879 104.278 5.63752C104.319 5.68501 104.361 5.74153 104.402 5.80708C104.444 5.87262 104.481 5.94304 104.515 6.01832C104.548 6.09147 104.574 6.16573 104.593 6.24111C104.613 6.31517 104.622 6.38552 104.621 6.45216C104.675 6.51944 104.725 6.575 104.772 6.61884C104.819 6.66055 104.867 6.69643 104.916 6.72648C104.923 6.73054 104.93 6.73501 104.938 6.73988C104.945 6.74262 104.952 6.74602 104.959 6.75008C104.954 6.73994 104.939 6.71878 104.913 6.68661C104.888 6.65445 104.859 6.61508 104.828 6.5685C104.796 6.5198 104.769 6.46729 104.745 6.41098C104.72 6.35386 104.707 6.29634 104.704 6.23842C104.7 6.17969 104.715 6.12396 104.747 6.07123C104.775 6.02641 104.807 5.99797 104.843 5.98591C104.878 5.97305 104.914 5.97068 104.951 5.97881C104.987 5.98613 105.02 5.99913 105.05 6.01781C105.092 6.0438 105.127 6.07541 105.155 6.11265C105.184 6.14858 105.21 6.18394 105.234 6.21874C105.258 6.25142 105.284 6.27669 105.313 6.29455C105.337 6.30917 105.357 6.31405 105.372 6.30919C105.388 6.30433 105.4 6.29464 105.409 6.28014C105.427 6.25114 105.433 6.20859 105.428 6.1525C105.423 6.09508 105.409 6.03264 105.385 5.96517C105.361 5.89558 105.328 5.82907 105.287 5.76565L105.34 5.75472C105.387 5.82565 105.426 5.8986 105.456 5.97358C105.487 6.04855 105.503 6.12058 105.506 6.18966C105.509 6.25874 105.493 6.32162 105.458 6.3783C105.427 6.4284 105.39 6.45851 105.348 6.46863C105.305 6.47876 105.264 6.47164 105.225 6.44727C105.197 6.43022 105.169 6.40693 105.142 6.37739C105.114 6.34573 105.086 6.31473 105.058 6.28439C105.029 6.25405 105.001 6.23035 104.973 6.21329C104.942 6.1938 104.915 6.18765 104.895 6.19485C104.875 6.20072 104.858 6.21354 104.846 6.23332C104.826 6.26627 104.821 6.30406 104.831 6.34666C104.84 6.38846 104.858 6.43249 104.886 6.47876C104.914 6.52503 104.945 6.5716 104.98 6.61848C105.013 6.66455 105.045 6.7094 105.074 6.75303C105.104 6.79666 105.125 6.83674 105.137 6.87326C105.151 6.90928 105.15 6.94047 105.134 6.96683ZM104.52 6.33267C104.508 6.26694 104.487 6.1983 104.456 6.12678C104.425 6.05312 104.391 5.98367 104.353 5.91843C104.315 5.85319 104.278 5.79779 104.242 5.75223C104.206 5.70453 104.177 5.67272 104.154 5.65678L104.148 5.65313C104.143 5.66104 104.149 5.68833 104.166 5.735C104.182 5.77953 104.207 5.836 104.241 5.90438C104.275 5.97063 104.316 6.04201 104.363 6.11852C104.411 6.1937 104.464 6.26509 104.52 6.33267Z" fill="black"/>
</svg>
